<?xml version="1.0" encoding="utf-8"?>
<!-- Generator: Adobe Illustrator 22.1.0, SVG Export Plug-In . SVG Version: 6.00 Build 0)  -->
<svg version="1.1" xmlns="http://www.w3.org/2000/svg" xmlns:xlink="http://www.w3.org/1999/xlink" x="0px" y="0px"
	 viewBox="0 0 20 20" style="enable-background:new 0 0 20 20;" xml:space="preserve">
<style type="text/css">
	.st0{display:none;}
	.st1{display:inline;fill-rule:evenodd;clip-rule:evenodd;fill:none;stroke:#B9BCCA;stroke-width:1.5;stroke-miterlimit:10;}
	.st2{fill-rule:evenodd;clip-rule:evenodd;fill:#B9BCCA;}
	.st3{fill:#B9BCCA;}
</style>
<g id="Layer_1" class="st0">
	<path class="st1" d="M10,5v6l-4,2"/>
	<path class="st1" d="M10,0.9c5,0,9.1,4.1,9.1,9.1S15,19.1,10,19.1S0.9,15,0.9,10S5,0.9,10,0.9z"/>
</g>
<g id="Layer_2">
	<g>
		<path class="st2" d="M4.6,8.3h2.2v2.2H4.6V8.3z"/>
		<path class="st2" d="M8.9,8.3h2.2v2.2H8.9V8.3z"/>
		<path class="st2" d="M13.2,8.3h2.2v2.2h-2.2V8.3z"/>
		<path class="st2" d="M4.6,12.6h2.2v2.2H4.6V12.6z"/>
		<path class="st2" d="M8.9,12.6h2.2v2.2H8.9V12.6z"/>
		<path class="st2" d="M13.2,12.6h2.2v2.2h-2.2V12.6z"/>
	</g>
	<rect x="5" y="1.1" class="st3" width="2" height="3"/>
	<rect x="13" y="1.1" class="st3" width="2" height="3"/>
	<path class="st3" d="M17.5,5v12h-15V5H17.5 M18,3.5H2c-0.6,0-1,0.4-1,1v13c0,0.6,0.4,1,1,1h16c0.6,0,1-0.4,1-1v-13
		C19,3.9,18.6,3.5,18,3.5L18,3.5z"/>
</g>
</svg>
