<?xml version="1.0" encoding="utf-8"?>
<!-- Generator: Adobe Illustrator 22.1.0, SVG Export Plug-In . SVG Version: 6.00 Build 0)  -->
<svg version="1.1" id="Layer_1" xmlns="http://www.w3.org/2000/svg" xmlns:xlink="http://www.w3.org/1999/xlink" x="0px" y="0px"
	 viewBox="0 0 20 20" style="enable-background:new 0 0 20 20;" xml:space="preserve">
<style type="text/css">
	.st0{fill:#212121;}
</style>
<path class="st0" d="M15,4.5c-0.2,0-0.4,0-0.5,0l-0.2,0l0-0.2l0-0.6c0-0.2-0.1-0.4-0.2-0.6C14,3,13.8,2.9,13.5,2.9H1.7
	C1.5,2.9,1.3,3,1.2,3.1C1.1,3.3,1,3.5,1,3.7l0.7,10.7c0.1,1.8,1.6,3.2,3.4,3.2h5.1c1.8,0,3.3-1.5,3.4-3.2l0-0.4l0-0.2l0.2,0.1
	C14.2,14,14.6,14,15,14c2.6,0,4-3.2,4-5.6C19,6,17.5,4.5,15,4.5z M12.7,4.7l-0.6,9.7c-0.1,0.9-0.9,1.7-1.8,1.7H5.1
	c-0.9,0-1.8-0.8-1.8-1.7L2.7,4.7l0-0.2h0.2h9.7h0.2L12.7,4.7z M15,12.4c-0.1,0-0.1,0-0.2,0c-0.6,0-0.9-0.3-1-0.3L13.8,12l0-0.1
	l0.3-5.6l0-0.1l0.1,0c0,0,0.5-0.1,0.7-0.1c1.6,0,2.4,0.8,2.4,2.4C17.4,10.6,16.1,12.3,15,12.4z"/>
</svg>
