<?xml version="1.0" encoding="utf-8"?>
<!-- Generator: Adobe Illustrator 22.1.0, SVG Export Plug-In . SVG Version: 6.00 Build 0)  -->
<svg version="1.1" id="Layer_1" xmlns="http://www.w3.org/2000/svg" xmlns:xlink="http://www.w3.org/1999/xlink" x="0px" y="0px"
	 viewBox="0 0 20 20" style="enable-background:new 0 0 20 20;" xml:space="preserve">
<style type="text/css">
	.st0{fill:#212121;}
	.st1{enable-background:new    ;}
</style>
<g id="Group" transform="translate(2.000000, 2.000000)">
	<path id="Oval_3_" class="st0" d="M8,0.6c4.1,0,7.4,3.3,7.4,7.4s-3.3,7.4-7.4,7.4S0.6,12.1,0.6,8S3.9,0.6,8,0.6 M8-1C3-1-1,3-1,8
		s4,9,9,9s9-4,9-9S13-1,8-1L8-1z"/>
	<g class="st1">
		<path class="st0" d="M8.7,9.3H7.1v2.3c0,0.3-0.1,0.6-0.2,0.8c-0.2,0.2-0.4,0.3-0.6,0.3c-0.3,0-0.5-0.1-0.6-0.3
			c-0.2-0.2-0.2-0.4-0.2-0.7V5.3c0-0.4,0.1-0.6,0.3-0.8c0.2-0.2,0.4-0.2,0.8-0.2h2.1c0.6,0,1.1,0,1.5,0.1c0.3,0.1,0.6,0.2,0.9,0.5
			c0.2,0.2,0.4,0.5,0.6,0.8c0.1,0.3,0.2,0.7,0.2,1.1c0,0.8-0.3,1.5-0.8,1.9S9.7,9.3,8.7,9.3z M8.3,5.5H7.1V8h1.1c0.4,0,0.7,0,1-0.1
			s0.5-0.2,0.6-0.4C10,7.3,10,7.1,10,6.8c0-0.4-0.1-0.7-0.3-0.9C9.5,5.7,9,5.5,8.3,5.5z"/>
	</g>
</g>
</svg>
