<?xml version="1.0" encoding="utf-8"?>
<!-- Generator: Adobe Illustrator 22.1.0, SVG Export Plug-In . SVG Version: 6.00 Build 0)  -->
<svg version="1.1" id="Layer_1" xmlns="http://www.w3.org/2000/svg" xmlns:xlink="http://www.w3.org/1999/xlink" x="0px" y="0px"
	 viewBox="0 0 20 20" style="enable-background:new 0 0 20 20;" xml:space="preserve">
<style type="text/css">
	.st0{fill:#212121;}
</style>
<g>
	<title>icon/ic_facility_charge_16</title>
	<desc>Created with Sketch.</desc>
	<g>
		<path class="st0" d="M18.8,9l-7.4-7.4C11,1.3,10.5,1.1,10,1.1c-0.5,0-1,0.2-1.4,0.5L1.1,9C0.9,9.3,1,9.7,1.2,9.9
			c0.1,0.1,0.3,0.2,0.5,0.2c0.1,0,0.3,0,0.4-0.1l0.2-0.2l0.3-0.3v0.4v5.7c0,1.6,1.3,2.8,2.8,2.8h8.9c1.6,0,2.8-1.3,2.8-2.8V9.9V9.4
			l0.3,0.3l0.2,0.2c0.1,0.1,0.3,0.2,0.5,0.2c0.2,0,0.4-0.1,0.5-0.2C19.1,9.7,19.1,9.3,18.8,9z M15.8,8.1v7.5c0,0.4-0.1,0.7-0.4,1
			c-0.3,0.3-0.6,0.4-1,0.4H5.5c-0.4,0-0.7-0.1-1-0.4c-0.3-0.3-0.4-0.6-0.4-1V8.1V8.1L4.1,8l5.4-5.4C9.6,2.5,9.8,2.5,10,2.5
			c0.2,0,0.3,0.1,0.4,0.2L15.8,8L15.8,8.1L15.8,8.1z"/>
		<path class="st0" d="M13.1,8.9c-0.2,0-0.3,0.1-0.4,0.2L9,12.9L8.9,13l-0.1-0.1l-1.5-1.4c-0.1-0.1-0.3-0.2-0.4-0.2
			s-0.3,0.1-0.4,0.2c-0.1,0.1-0.2,0.3-0.2,0.4c0,0.1,0.1,0.3,0.2,0.4l2.1,2.1c0.1,0.1,0.3,0.2,0.4,0.2c0,0,0,0,0,0
			c0.2,0,0.3-0.1,0.4-0.2l4.2-4.4c0.1-0.1,0.2-0.3,0.2-0.4c0-0.2-0.1-0.3-0.2-0.4C13.4,9,13.2,8.9,13.1,8.9"/>
	</g>
</g>
</svg>
