<?xml version="1.0" encoding="utf-8"?>
<!-- Generator: Adobe Illustrator 22.1.0, SVG Export Plug-In . SVG Version: 6.00 Build 0)  -->
<svg version="1.1" id="Layer_1" xmlns="http://www.w3.org/2000/svg" xmlns:xlink="http://www.w3.org/1999/xlink" x="0px" y="0px"
	 viewBox="0 0 20 20" style="enable-background:new 0 0 20 20;" xml:space="preserve">
<style type="text/css">
	.st0{fill:#212121;}
</style>
<g id="resource_6_">
	<g id="ico_detail_vehicle" transform="translate(-3.000000, -2.000000)">
		<g id="vehicle" transform="translate(3.240967, 2.620536)">
			<path id="Shape_4_" class="st0" d="M15.1,0.4H4.4c-1.2,0-2.1,0.9-2.1,2.1v11.7c0,0.6,0.3,1.1,0.7,1.5v1.2c0,0.4,0.2,0.8,0.4,1.1
				c0.3,0.3,0.7,0.5,1.1,0.4h0.4c0.4,0,0.8-0.2,1.1-0.4c0.3-0.3,0.5-0.7,0.4-1.1v-0.6H13v0.6c0,0.4,0.2,0.8,0.4,1.1
				c0.3,0.3,0.7,0.5,1.1,0.4H15c0.4,0,0.8-0.2,1.1-0.4c0.3-0.3,0.5-0.7,0.4-1.1v-1.1c0.5-0.4,0.7-1,0.7-1.6V2.5
				C17.2,1.3,16.3,0.4,15.1,0.4z M15.9,11.7v2.4c0,0.4-0.3,0.8-0.8,0.8H4.6c-0.4,0-1-0.4-1-0.8v-2.4H15.9z M15.9,5.8v4.7H3.6V5.8
				H15.9z M4.4,1.7h10.7c0.4,0,0.8,0.3,0.8,0.8v2H3.6v-2C3.6,2,4,1.7,4.4,1.7z M4.3,16.2h0.8v0.6c0,0.1,0,0.1-0.1,0.2
				c0,0-0.1,0.1-0.2,0.1H4.6c-0.1,0-0.1,0-0.2-0.1c0,0-0.1-0.1-0.1-0.2V16.2z M14.4,16.2h0.8v0.6c0,0.1,0,0.1-0.1,0.2
				c0,0-0.1,0.1-0.2,0.1h-0.4c-0.1,0-0.1,0-0.2-0.1c0,0-0.1-0.1-0.1-0.2V16.2z"/>
			<path id="Shape_1_" class="st0" d="M8.6,3.6H11c0.4,0,0.7-0.3,0.7-0.7S11.3,2.3,11,2.3H8.6C8.2,2.3,7.9,2.6,7.9,3
				c0,0.2,0.1,0.3,0.2,0.5C8.3,3.6,8.4,3.6,8.6,3.6z"/>
			<path id="Shape_2_" class="st0" d="M5.3,14c0.3,0,0.6-0.2,0.7-0.5c0.1-0.3,0.1-0.6-0.2-0.9c-0.2-0.2-0.6-0.3-0.9-0.2
				c-0.3,0.1-0.5,0.4-0.5,0.7C4.6,13.7,4.9,14,5.3,14z"/>
			<path id="Shape_3_" class="st0" d="M14.3,14c0.3,0,0.6-0.2,0.7-0.5c0.1-0.3,0.1-0.6-0.2-0.9c-0.2-0.2-0.6-0.3-0.9-0.2
				s-0.5,0.4-0.5,0.7C13.5,13.7,13.8,14,14.3,14z"/>
		</g>
	</g>
</g>
</svg>
