<?xml version="1.0" encoding="utf-8"?>
<!-- Generator: Adobe Illustrator 22.1.0, SVG Export Plug-In . SVG Version: 6.00 Build 0)  -->
<svg version="1.1" id="Layer_1" xmlns="http://www.w3.org/2000/svg" xmlns:xlink="http://www.w3.org/1999/xlink" x="0px" y="0px"
	 viewBox="0 0 20 20" style="enable-background:new 0 0 20 20;" xml:space="preserve">
<style type="text/css">
	.st0{fill:#212121;}
</style>
<g id="resource_11_">
	<g id="ico_detail_car" transform="translate(-1.000000, -4.000000)">
		<g id="car" transform="translate(1.500000, 4.500000)">
			<path id="Shape_5_" class="st0" d="M17.8,8l-1.4-0.7l-1.3-1.9c-0.4-0.7-1.2-1.1-2-1.1H7.6c-0.7,0-1.4,0.4-1.9,1L4.1,7.4L1.5,8.1
				C0.6,8.3,0,9.1,0,10v1.1c0,1.1,0.9,2,2,2c0.2,0.5,0.6,0.9,1,1.2c0.4,0.2,0.8,0.3,1.2,0.3c0.2,0,0.4,0,0.6,0
				c0.8-0.2,1.4-0.8,1.7-1.5h5.7c0.2,0.5,0.6,0.9,1,1.2c0.6,0.3,1.3,0.4,1.9,0.2c0.8-0.2,1.4-0.8,1.7-1.5H17c1.1,0,1.9-0.9,2-2V9.9
				C19,9.1,18.5,8.4,17.8,8z M14.5,11.3c0.5,0,0.9,0.4,0.9,0.9c0,0.3-0.1,0.5-0.3,0.7c-0.3,0.3-0.8,0.4-1.1,0.1
				c-0.4-0.2-0.5-0.6-0.4-1.1C13.7,11.6,14.1,11.3,14.5,11.3z M4.2,11.3c0.5,0,0.9,0.4,0.9,0.9c0,0.5-0.4,0.9-0.9,0.9
				s-0.9-0.4-0.9-0.9C3.3,11.7,3.7,11.3,4.2,11.3z M7.6,5.8h5.6c0.3,0,0.6,0.2,0.8,0.4l1.4,2.2c0.1,0.1,0.2,0.2,0.3,0.3l1.5,0.7
				c0.2,0.1,0.3,0.3,0.3,0.5v1.3c0,0.3-0.2,0.5-0.5,0.5h-0.1c-0.3-1.1-1.3-1.8-2.4-1.8c-1.1,0-2.1,0.7-2.4,1.8H6.6
				c-0.1-0.5-0.4-1-0.9-1.3C5.3,9.9,4.6,9.7,4,9.8c-1,0.1-1.8,0.8-2.1,1.8c-0.2-0.1-0.4-0.3-0.3-0.5V10c0-0.2,0.1-0.4,0.4-0.5
				l2.9-0.8c0.2,0,0.3-0.1,0.4-0.3l1.7-2.3C7.1,6,7.3,5.9,7.6,5.8z"/>
		</g>
	</g>
</g>
</svg>
