<?xml version="1.0" encoding="utf-8"?>
<!-- Generator: Adobe Illustrator 22.1.0, SVG Export Plug-In . SVG Version: 6.00 Build 0)  -->
<svg version="1.1" id="Layer_1" xmlns="http://www.w3.org/2000/svg" xmlns:xlink="http://www.w3.org/1999/xlink" x="0px" y="0px"
	 viewBox="0 0 20 20" style="enable-background:new 0 0 20 20;" xml:space="preserve">
<style type="text/css">
	.st0{fill:#212121;}
</style>
<g id="resource_5_">
	<g id="ico_detail_wifi" transform="translate(-2.000000, -4.000000)">
		<g id="Shape">
			<path id="path-1_5_" class="st0" d="M7.1,16.2c2.9-2.5,7.1-2.5,9.9,0c0.3,0.3,0.8,0.2,1.1-0.1c0.3-0.3,0.2-0.8-0.1-1.1
				c-3.5-3-8.5-3-11.9,0c-0.3,0.3-0.4,0.8-0.1,1.1C6.2,16.5,6.7,16.5,7.1,16.2z M4.3,13.4c4.4-4,11-4,15.4,0
				c0.3,0.3,0.8,0.3,1.1-0.1s0.3-0.8-0.1-1.1c-5-4.5-12.5-4.5-17.5,0c-0.3,0.3-0.4,0.8-0.1,1.1S4,13.6,4.3,13.4z M9.8,19.1
				c1.3-1,3.2-1,4.5,0c0.3,0.3,0.8,0.2,1.1-0.2c0.2-0.4,0.2-0.9-0.2-1.1c-1.9-1.4-4.4-1.4-6.3,0c-0.3,0.3-0.4,0.8-0.2,1.1
				C8.9,19.3,9.4,19.4,9.8,19.1z"/>
		</g>
	</g>
</g>
</svg>
