<?xml version="1.0" encoding="utf-8"?>
<!-- Generator: Adobe Illustrator 22.1.0, SVG Export Plug-In . SVG Version: 6.00 Build 0)  -->
<svg version="1.1" xmlns="http://www.w3.org/2000/svg" xmlns:xlink="http://www.w3.org/1999/xlink" x="0px" y="0px"
	 viewBox="0 0 22 22" style="enable-background:new 0 0 22 22;" xml:space="preserve">
<style type="text/css">
	.st0{display:none;}
	.st1{display:inline;}
	.st2{fill:#212121;}
</style>
<g id="레이어_1" class="st0">
	<g id="Symbols" class="st1">
		<g id="_x40_icon_x2F_bookmark-white" transform="translate(-9.000000, -7.000000)">
			<g id="bookmark">
				<g id="Shape_6_">
					<g>
						<path id="path-1_10_" class="st2" d="M26,25.5v-15c0-0.6-0.4-1.1-1-1.1H15c-0.6,0-1,0.5-1,1.1v15l5.4-4.1
							c0.3-0.3,0.8-0.3,1.2,0L26,25.5z M20,23.6l-6.4,4.9c-0.7,0.5-1.6,0-1.6-0.9V10.5c0-1.8,1.3-3.2,3-3.2h10c1.7,0,3,1.4,3,3.2
							v17.1c0,0.9-0.9,1.4-1.6,0.9L20,23.6z"/>
					</g>
				</g>
			</g>
		</g>
	</g>
</g>
<g id="Layer_2">
	<g id="Symbols_1_">
		<g id="_x40_icon_x2F_share-white" transform="translate(-8.000000, -7.000000)">
			<g id="icon_2_">
				<g id="Combined-Shape_1_">
					<path id="path-1_2_" class="st2" d="M20,11.1v10.5c0,0.5-0.4,1-1,1s-1-0.4-1-1V11.1l-2.3,2.3c-0.4,0.4-1,0.4-1.4,0
						c-0.4-0.4-0.4-1,0-1.4l4-4c0.4-0.4,1-0.4,1.4,0l4,4c0.4,0.4,0.4,1,0,1.4c-0.4,0.4-1,0.4-1.4,0L20,11.1z M10,17.4
						c0-0.5,0.4-1,1-1s1,0.4,1,1v7.9c0,0.5,0.4,1,1,1h12c0.6,0,1-0.4,1-1v-7.9c0-0.5,0.4-1,1-1c0.6,0,1,0.4,1,1v7.9c0,1.6-1.3,3-3,3
						H13c-1.7,0-3-1.3-3-3V17.4z"/>
				</g>
			</g>
		</g>
	</g>
</g>
</svg>
