<?xml version="1.0" encoding="utf-8"?>
<!-- Generator: Adobe Illustrator 22.1.0, SVG Export Plug-In . SVG Version: 6.00 Build 0)  -->
<svg version="1.1" id="Layer_1" xmlns="http://www.w3.org/2000/svg" xmlns:xlink="http://www.w3.org/1999/xlink" x="0px" y="0px"
	 viewBox="0 0 101.1 39.6" style="enable-background:new 0 0 101.1 39.6;" xml:space="preserve">
<style type="text/css">
	.st0{fill:#353535;}
	.st1{fill:#FF535F;}
	.st2{enable-background:new    ;}
	.st3{fill:#FFFFFF;}
	.st4{fill:#6E6E6E;}
</style>
<g id="logo" transform="translate(-358.906 -20)">
	<path id="모양_1" class="st0" d="M442.9,39.4l-12.1-17.6c-0.7-1-2.2-1.3-3.2-0.6l0,0c-1,0.7-1.3,2.1-0.6,3.1c0,0,0,0,0,0
		l9.7,14.1h-10.1l-11.4-16.5c-0.2-0.3-0.4-0.6-0.7-0.8l0,0c-0.8-0.5-1.8-0.5-2.6,0l0,0c-0.3,0.2-0.5,0.5-0.7,0.8l-5.2,7.6l-5.2-7.6
		c-0.2-0.3-0.4-0.6-0.7-0.8l0,0c-0.8-0.5-1.8-0.5-2.6,0l0,0c-0.3,0.2-0.5,0.5-0.7,0.8l-10.1,14.7l-10.1-14.7
		c-0.2-0.3-0.4-0.6-0.7-0.8l0,0c-0.8-0.5-1.8-0.5-2.6,0l0,0c-0.3,0.2-0.5,0.5-0.7,0.8l-12,17.5c-0.7,1-0.4,2.4,0.6,3.1c0,0,0,0,0,0
		l0,0c1.1,0.7,2.5,0.4,3.2-0.6l10.2-14.8l10.1,14.7c0.2,0.3,0.4,0.6,0.7,0.8l0,0c0.8,0.5,1.8,0.5,2.6,0l0,0c0.3-0.2,0.5-0.5,0.7-0.8
		l10.1-14.7l4.4,6.4l-4,5.9c-0.7,1-0.4,2.4,0.6,3.1c0,0,0,0,0,0l0,0c1.1,0.7,2.5,0.4,3.2-0.6l3-4.3l3,4.3c0.7,1,2.2,1.3,3.2,0.6l0,0
		c1-0.7,1.3-2.1,0.6-3.1c0,0,0,0,0,0l-4-5.9l4.4-6.4l10.2,14.8c0.3,0.4,0.6,0.7,1.1,0.8c0.3,0.1,0.6,0.2,1,0.2h15.5
		c0.5,0,1-0.2,1.4-0.4l0,0C443.4,41.9,443.6,40.5,442.9,39.4C443,39.4,442.9,39.4,442.9,39.4z"/>
	<path id="모서리가_둥근_직사각형_1" class="st1" d="M450.1,20h6.9c1.7,0,3,1.3,3,3v17c0,1.7-1.3,3-3,3h-6.9
		c-1.7,0-3-1.3-3-3V23C447.1,21.3,448.5,20,450.1,20z"/>
	<g class="st2">
		<path class="st3" d="M451.2,24.7v-0.4h2.1v-0.8h0.5v0.8h2.1v0.4H451.2z M455.6,23.7c-0.8-0.1-1.7-0.7-1.9-1.2
			c-0.2,0.6-1.1,1.1-1.9,1.2l-0.2-0.4c0.9-0.1,1.9-0.7,1.9-1.4v-0.1h0.6v0.1c0,0.8,1.1,1.4,1.9,1.4L455.6,23.7z M451.8,26.9v-1.7
			h3.7v1.7H451.8z M454.9,25.6h-2.6v0.9h2.6V25.6z"/>
		<path class="st3" d="M452.7,31.5c-0.2-0.1-0.4-0.4-0.5-0.6c-0.1,0.4-0.4,0.9-0.8,1.2l-0.4-0.3c0.5-0.4,0.9-1.2,0.9-2.3v-0.9h0.5v1
			c0,1,0.3,1.3,0.5,1.6L452.7,31.5z M454.5,32.2c-0.3-0.3-0.7-0.8-0.8-1.1c-0.1,0.5-0.5,1.1-1,1.5l-0.4-0.3c0.7-0.5,1-1.5,1-2.5
			v-1.1h0.5v1.1c0,1,0.3,1.7,0.9,2.2L454.5,32.2z M455.1,33.5v-5.4h0.5v5.4H455.1z"/>
		<path class="st3" d="M452.2,37c0.7,0,1.6,0,2.1-0.2l0.1,0.4c-0.6,0.1-1.5,0.2-2.4,0.2h-0.5V35h2.4v0.4h-1.9V37H452.2z M453.6,40
			c-1.2,0-1.8-0.4-1.8-1c0-0.6,0.6-1,1.8-1c1.2,0,1.8,0.4,1.8,1C455.4,39.5,454.8,40,453.6,40z M453.6,38.3c-0.8,0-1.2,0.2-1.2,0.6
			c0,0.4,0.5,0.6,1.2,0.6c0.8,0,1.2-0.2,1.2-0.6S454.4,38.3,453.6,38.3z M455.4,36.4v1.4h-0.5v-3.2h0.5V36h0.8v0.4H455.4z"/>
	</g>
	<g class="st2">
		<path class="st4" d="M359.2,53.4v-1h3.8v-1.3h1.3v1.3h3.8v1H359.2z M360.2,51.7l-0.5-1c1.6-0.2,3.4-1.1,3.4-2.5v-0.3h1.3v0.3
			c0,1.5,2,2.5,3.4,2.5l-0.6,1c-1.3-0.2-3-1-3.5-2.1C363.2,50.7,361.6,51.5,360.2,51.7z M360.4,57.3v-3.2h6.6v3.2H360.4z
			 M365.7,55.1h-4v1.2h4V55.1z"/>
		<path class="st4" d="M371.4,53.8c-0.3-0.2-0.6-0.6-0.7-0.9c-0.2,0.7-0.7,1.5-1.4,2l-0.8-0.8c1.1-0.8,1.5-2.2,1.5-4.6v-1h1.2v1
			c0,2.3,0.3,2.8,0.8,3.3L371.4,53.8z M374.6,55.1c-0.4-0.4-1-1.1-1.2-1.7c-0.2,0.7-1,1.9-1.6,2.3l-0.8-0.8c1.3-1,1.8-2.7,1.8-4.7
			v-1.7h1.2V50c0,2,0.4,3.3,1.4,4.2L374.6,55.1z M375.7,57.4v-9.8h1.3v9.8H375.7z"/>
		<path class="st4" d="M381.2,48.2c1.6,0,2.7,1.1,2.7,2.5c0,1.4-1.1,2.4-2.7,2.4c-1.6,0-2.7-1-2.7-2.4
			C378.5,49.3,379.6,48.2,381.2,48.2z M386.3,57.5c-1.3-0.2-2.7-1.2-3.2-2.1c-0.4,0.9-1.8,1.8-3.2,2.1l-0.6-1
			c1.7-0.2,3.2-1.2,3.2-2.6v-0.3h1.3v0.3c0,1.4,1.5,2.4,3.1,2.6L386.3,57.5z M381.2,52c0.8,0,1.4-0.6,1.4-1.3c0-0.8-0.5-1.4-1.4-1.4
			c-0.9,0-1.4,0.6-1.4,1.4S380.3,52,381.2,52z M385.1,54v-6.4h1.3V54H385.1z"/>
		<path class="st4" d="M387.8,53.5v-1h8.9v1H387.8z M388.9,57.2v-2.9h1.3v1.9h5.4v1H388.9z M389,51.4V48h1.3v2.4h5.3v1H389z"/>
		<path class="st4" d="M405.3,55.1c-0.8-0.5-1.9-1.7-2.3-2.7c-0.3,1.1-1.3,2.3-2.3,2.9c-0.3-0.3-0.5-0.6-0.8-0.9
			c1.6-1,2.4-2.6,2.4-4.6v-1.3h1.3v1.3c0,1.9,0.9,3.5,2.4,4.4C405.8,54.5,405.6,54.8,405.3,55.1z M407.8,51.4h1.4v1.1h-1.4v5h-1.3
			v-9.8h1.3V51.4z"/>
		<path class="st4" d="M415.3,52.8c-0.8,0.2-2.6,0.4-4,0.4H410V50h3.1v-0.9H410v-1h4.4V51h-3.1v1.1c1.2,0,3.1-0.1,3.9-0.3
			L415.3,52.8z M411,57.3v-3.4h6.4v3.4H411z M416.1,54.9h-3.8v1.4h3.8V54.9z M417.4,51.1v2.3h-1.3v-5.8h1.3v2.4h1.4v1.1H417.4z"/>
		<path class="st4" d="M419.2,52.6v-1h8.9v1H419.2z M420.4,57.4v-2.6h5.3v-0.6h-5.3v-1h6.6v2.5h-5.3v0.6h5.6v1.1H420.4z M420.4,50.9
			v-3.1h6.6v1h-5.3v1.1h5.4v1H420.4z"/>
		<path class="st4" d="M432,55.2c-1.1,0-2.3,0.1-3.1,0.1l-0.2-1.1c1.1,0,2.1,0,3.2-0.1c1.2,0,2.4-0.1,3.3-0.2l0.1,1
			C434.4,55,433.1,55.2,432,55.2z M431.8,48.3c1.7,0,2.7,1,2.7,2.4c0,1.4-1.1,2.4-2.7,2.4c-1.6,0-2.7-1-2.7-2.4
			C429.1,49.2,430.2,48.3,431.8,48.3z M431.8,51.9c0.9,0,1.4-0.6,1.4-1.3c0-0.7-0.5-1.3-1.4-1.3c-0.9,0-1.4,0.6-1.4,1.3
			C430.4,51.3,431,51.9,431.8,51.9z M437,57.4h-1.3v-9.8h1.3V57.4z"/>
		<path class="st4" d="M441.1,52.9v-1h3.4v-1.7h1.3v1.7h4.2v1H441.1z M445.5,57.4c-2.2,0-3.4-0.7-3.4-1.9c0-1.1,1.3-1.9,3.4-1.9
			c2.2,0,3.4,0.7,3.4,1.9C448.9,56.7,447.6,57.4,445.5,57.4z M448.5,51.4c-0.4-0.1-0.8-0.1-1.2-0.2c0.2-0.7,0.3-1.2,0.3-2.3h-5.4v-1
			h6.7C448.9,49.8,448.7,50.6,448.5,51.4z M445.5,54.7c-1.3,0-2.1,0.3-2.1,0.8c0,0.5,0.8,0.8,2.1,0.8c1.3,0,2.1-0.3,2.1-0.8
			C447.6,55,446.8,54.7,445.5,54.7z"/>
		<path class="st4" d="M451.2,53.6l-0.6-1c1.6-0.3,3.4-1.4,3.7-3.2H451v-1.1h4.6C455.6,51.2,453.5,53,451.2,53.6z M452,57.1V54h1.3
			v2.1h5.2v1H452z M458.3,51.5v3.2H457v-7.1h1.3v2.8h1.4v1.1H458.3z"/>
	</g>
</g>
</svg>
