<?xml version="1.0" encoding="utf-8"?>
<!-- Generator: Adobe Illustrator 22.1.0, SVG Export Plug-In . SVG Version: 6.00 Build 0)  -->
<svg version="1.1" id="Layer_1" xmlns="http://www.w3.org/2000/svg" xmlns:xlink="http://www.w3.org/1999/xlink" x="0px" y="0px"
	 viewBox="0 0 150 150" style="enable-background:new 0 0 150 150;" xml:space="preserve">
<style type="text/css">
	.st0{fill-rule:evenodd;clip-rule:evenodd;fill:#FFFFFF;}
	.st1{fill:#353535;}
	.st2{fill:#FF6A56;}
	.st3{fill:#FFFFFF;}
</style>
<path class="st0" d="M22.5,0h105C139.9,0,150,10.1,150,22.5v105c0,12.4-10.1,22.5-22.5,22.5h-105C10.1,150,0,139.9,0,127.5v-105
	C0,10.1,10.1,0,22.5,0z"/>
<path class="st1" d="M120.5,86.4L105.7,64c-0.9-1.3-2.6-1.7-3.9-0.8h0c-1.3,0.9-1.6,2.7-0.8,4l11.8,17.9h-12.3l-13.9-21
	c-0.2-0.4-0.5-0.7-0.9-1h0c-0.5-0.3-1-0.5-1.6-0.5c-0.5,0-1.1,0.2-1.6,0.5l0,0c-0.4,0.3-0.7,0.6-0.9,1l-6.3,9.6l-6.3-9.6
	c-0.2-0.4-0.5-0.7-0.9-1l0,0c-0.5-0.3-1-0.5-1.6-0.5c-0.5,0-1.1,0.2-1.6,0.5l0,0c-0.4,0.3-0.7,0.6-0.9,1L51.9,82.9L39.6,64.2
	c-0.2-0.4-0.5-0.7-0.9-1l0,0c-0.5-0.3-1-0.5-1.6-0.5c-0.5,0-1.1,0.2-1.6,0.5l0,0c-0.4,0.3-0.7,0.6-0.9,1L20,86.4
	c-0.9,1.3-0.5,3.1,0.8,4l0,0c1.3,0.9,3.1,0.5,3.9-0.8l12.4-18.8l12.3,18.6c0.2,0.4,0.5,0.7,0.9,1l0,0c0.5,0.3,1,0.5,1.6,0.5
	c0.5,0,1.1-0.2,1.6-0.5l0,0c0.4-0.3,0.7-0.6,0.9-1l12.3-18.6L72,79l-4.9,7.4c-0.9,1.3-0.5,3.1,0.8,4l0,0c1.3,0.9,3.1,0.5,3.9-0.8
	l3.6-5.5l3.6,5.5c0.9,1.3,2.6,1.7,3.9,0.8l0,0c1.3-0.9,1.6-2.7,0.8-4L78.8,79l5.4-8.2l12.4,18.8c0.3,0.5,0.8,0.9,1.3,1.1
	c0.4,0.2,0.8,0.3,1.2,0.3H118c0.4,0,0.8-0.1,1.1-0.2c0.2-0.1,0.4-0.2,0.6-0.3h0C121,89.5,121.4,87.7,120.5,86.4z"/>
<g id="도장" transform="translate(275.948052, 132.467532)">
	<path id="Rectangle-3" class="st2" d="M-157.1-94h10.3c1.6,0,2.9,1.3,2.9,3v24.6c0,1.6-1.3,3-2.9,3h-10.3c-1.6,0-2.9-1.3-2.9-3V-91
		C-159.9-92.7-158.7-94-157.1-94z"/>
	<g id="_x3145__x3146__x3137_" transform="translate(3.896104, 7.792208)">
		<path id="_x3137_" class="st3" d="M-160.7-81.9h9.7c0.3,0,0.5,0.2,0.5,0.5s-0.2,0.5-0.5,0.5h-9.2v3.6h9.2c0.3,0,0.5,0.2,0.5,0.5
			s-0.2,0.5-0.5,0.5h-9.7c-0.3,0-0.5-0.2-0.5-0.5v-4.6C-161.2-81.7-161-81.9-160.7-81.9z"/>
		<path id="씨_1_" class="st3" d="M-154.2-89.8c0.2,0,0.4,0.1,0.5,0.3l3.1,4.7c0.2,0.3,0.1,0.6-0.1,0.8c-0.3,0.2-0.6,0.1-0.8-0.2
			l-2.7-4.1l-1,1.5l1.2,1.9c0.2,0.3,0.1,0.6-0.1,0.8c-0.3,0.2-0.6,0.1-0.8-0.2l-1-1.5l-1,1.5c-0.2,0.3-0.5,0.3-0.8,0.2
			c-0.3-0.2-0.3-0.5-0.1-0.8l1.2-1.9l-1-1.5l-2.6,4.1c-0.2,0.3-0.5,0.3-0.8,0.2c-0.3-0.2-0.3-0.5-0.1-0.8l3.1-4.7
			c0.1-0.2,0.3-0.3,0.5-0.3c0.2,0,0.4,0.1,0.5,0.3l1.2,1.8l1.2-1.8C-154.6-89.7-154.4-89.8-154.2-89.8z"/>
		<path id="Combined-Shape_3_" class="st3" d="M-156.2-96.6c0.1-0.1,0.3-0.2,0.4-0.2c0.2,0,0.4,0.1,0.5,0.2c0,0,0,0,0,0l4.7,5
			c0.2,0.2,0.2,0.6,0,0.8l0,0c-0.2,0.2-0.5,0.2-0.7,0l-4.4-4.6l-4.5,4.6c-0.2,0.2-0.5,0.2-0.7,0c-0.2-0.2-0.2-0.5,0-0.7L-156.2-96.6
			C-156.3-96.6-156.3-96.6-156.2-96.6z"/>
	</g>
</g>
</svg>
